<svg xmlns:dc="http://purl.org/dc/elements/1.1/" xmlns:cc="http://creativecommons.org/ns#" xmlns:rdf="http://www.w3.org/1999/02/22-rdf-syntax-ns#" xmlns:svg="http://www.w3.org/2000/svg" xmlns="http://www.w3.org/2000/svg" viewBox="0 0 210 210" fill="none"><metadata><rdf:RDF><cc:Work><dc:format>image/svg+xml</dc:format><dc:type rdf:resource="http://purl.org/dc/dcmitype/StillImage"/><dc:title>Face Generator</dc:title><dc:creator><cc:Agent><dc:title>The Visual Team</dc:title></cc:Agent></dc:creator><dc:source>https://www.figma.com/community/file/986078800058673824</dc:source><cc:license rdf:resource="https://creativecommons.org/licenses/by/4.0/"/></cc:Work><cc:License rdf:about="https://creativecommons.org/licenses/by/4.0/"><cc:permits rdf:resource="https://creativecommons.org/ns#Reproduction"/><cc:permits rdf:resource="https://creativecommons.org/ns#Distribution"/><cc:permits rdf:resource="https://creativecommons.org/ns#DerivativeWorks"/><cc:requires rdf:resource="https://creativecommons.org/ns#Notice"/><cc:requires rdf:resource="https://creativecommons.org/ns#Attribution"/></cc:License></rdf:RDF></metadata><mask id="avatarsRadiusMask"><rect width="210" height="210" rx="0" ry="0" x="0" y="0" fill="#fff"/></mask><g mask="url(#avatarsRadiusMask)"><rect fill="rgba(218, 153, 105, 1)" width="210" height="210" x="0" y="0"/><g transform="translate(86.79 138.86) scale(.71856)"><path d="M58.247 16.353c0 16.879-13.72 30.562-30.646 30.562-16.925 0-30.645-13.683-30.645-30.562 0-16.88 13.72-4.075 30.645-4.075 16.925 0 30.646-12.804 30.646 4.075Z" fill="#DE8383"/><path fill-rule="evenodd" clip-rule="evenodd" d="M56.83 25.378H-1.68c-.957-2.94-2.194-6.067-2.194-9.315 0-11.087 6.011-9.44 15.023-6.962 4.781 1.314 10.406 2.86 16.427 2.86 6.02 0 11.645-1.546 16.426-2.86 9.012-2.477 14.292-3.394 14.292 7.693 0 3.249-.506 5.644-1.462 8.584Z" fill="#F9F9F9"/><path fill-rule="evenodd" clip-rule="evenodd" d="M50.389 36.005c-5.43 6.992-13.71 11.46-22.99 11.46-9.052 0-17.155-4.252-22.585-10.952 4.122-5.003 12.875-8.456 23.007-8.456 9.785 0 18.284 3.22 22.567 7.948Z" fill="#C06E6E"/></g><g transform="translate(2 11) scale(.71856)"><path d="M183.127 52.686C186.809 49.79 192.474 44 203.52 44c9.385 0 17.277 6.37 18.693 8.686M104.328 52.686C100.646 49.79 94.981 44 83.935 44c-9.385 0-17.277 6.37-18.693 8.686" stroke="#000" stroke-width="3.676" stroke-linecap="round"/><circle cx="87.228" cy="92.044" r="28.229" fill="#fff"/><circle cx="200.772" cy="92.044" r="28.229" fill="#fff"/><circle cx="87.229" cy="92.044" r="15.2" fill="#000"/><circle cx="200.771" cy="92.044" r="15.2" fill="#000"/><path d="M228.264 86.636h-55.952c1.851-13.798 13.671-24.44 27.976-24.44s26.125 10.642 27.976 24.44ZM114.953 86.636H59c1.851-13.798 13.671-24.44 27.976-24.44s26.125 10.642 27.977 24.44Z" fill="#CD9166"/></g><g transform="translate(14.934 89.19) scale(.71856)"/><g transform="translate(80.323 79.849) scale(.71856)"><path d="M38.928 28C35.285 28.78 28 31.98 28 38.537c0 8.196 7.285 10.538 10.928 11.708" stroke="#000" stroke-opacity=".5" stroke-width="4" stroke-linecap="round" stroke-linejoin="round"/></g></g></svg>